<?xml version="1.0" encoding="iso-8859-1"?>
<!-- Generator: Adobe Illustrator 19.0.0, SVG Export Plug-In . SVG Version: 6.00 Build 0)  -->
<svg version="1.1" id="Layer_1" xmlns="http://www.w3.org/2000/svg" xmlns:xlink="http://www.w3.org/1999/xlink" x="0px" y="0px"
	 viewBox="0 0 512.001 512.001" style="enable-background:new 0 0 512.001 512.001;" xml:space="preserve">
<path style="fill:#ED4343;" d="M457.395,400.107V271.552h24.438c3.522-0.146,11.247-1.505-1.46-11.572L365.81,169.255
	c-6.996,8.828-20.357,8.8-27.327-0.011l-116.696,92.413c-0.07,0.063-11.007,9.895,2.56,9.895h22.538v160.57
	c1.846,0.512,3.69,1.032,5.534,1.555h7.176C323.931,415.425,389.992,404.043,457.395,400.107z"/>
<g>
	<path style="fill:#B71D1D;" d="M371.123,173.464l-3.733-2.957C368.481,171.646,369.732,172.645,371.123,173.464z"/>
	<path style="fill:#B71D1D;" d="M366.037,169.435l-0.227-0.18c-0.326,0.412-0.675,0.801-1.035,1.178L366.037,169.435z"/>
</g>
<path style="fill:#C93F3F;" d="M264.738,271.858L264.738,271.858h-17.854v160.263c1.846,0.512,3.69,1.032,5.534,1.555h7.176
	c5.017-1.424,12.097-2.789,17.134-4.129V291.602C276.727,276.904,269.531,272.899,264.738,271.858z"/>
<path style="fill:#7F5030;" d="M397.664,405.567v-53.763c0-24.648-19.977-44.633-44.631-44.633
	c-24.656,0-44.632,19.984-44.632,44.633v69.425C337.836,414.563,367.602,409.32,397.664,405.567z"/>
<path style="fill:#704528;" d="M333.591,351.804c0-20.274,13.52-37.381,32.037-42.819c-3.995-1.173-8.218-1.814-12.595-1.814
	c-24.656,0-44.632,19.984-44.632,44.633v69.425c8.369-1.895,16.767-3.663,25.189-5.326L333.591,351.804L333.591,351.804z"/>
<path style="fill:#384047;" d="M332.791,385.128c-4.243,0-7.684-3.44-7.684-7.684v-5.103c0-4.244,3.44-7.684,7.684-7.684
	c4.244,0,7.684,3.44,7.684,7.684v5.103C340.475,381.688,337.035,385.128,332.791,385.128z"/>
<g>
	<path style="fill:#77C6ED;" d="M337.938,217.009c-5.096,0-8.769-4.865-7.405-9.752l28.272-101.297
		c1.141-4.086,5.382-6.474,9.467-5.334c4.087,1.141,6.476,5.379,5.335,9.467l-28.272,101.297
		C344.387,214.786,341.3,217.009,337.938,217.009z"/>
	<path style="fill:#77C6ED;" d="M404.256,180.441c-0.684,0-1.379-0.092-2.07-0.285l-105.195-29.368
		c-4.087-1.141-6.476-5.38-5.334-9.467c1.141-4.087,5.381-6.474,9.467-5.334l105.195,29.369c4.087,1.141,6.476,5.38,5.334,9.467
		C410.705,178.217,407.618,180.441,404.256,180.441z"/>
</g>
<path style="fill:#CAD13F;" d="M504.48,395.502c-85.036,0.567-170.163,12.978-250.535,36.121
	c67.517,19.442,133.126,46.453,196.379,80.377h47.949c6.79,0,12.294-5.503,12.294-12.294v-97.33
	C510.569,396.116,505.59,395.551,504.48,395.502z"/>
<path style="fill:#D8E553;" d="M504.48,395.502c-70.152,0.467-140.364,9.004-207.919,24.969
	c69.788,23.582,137.479,54.258,202.7,91.479c6.328-0.503,11.309-5.786,11.309-12.244v-97.33
	C510.569,396.116,505.59,395.551,504.48,395.502z"/>
<path style="fill:#2D9B37;" d="M450.325,512h47.949c6.79,0,12.294-5.503,12.294-12.294v-66.218
	c-63.657,0-127.997,7.079-188.431,20.591C366.361,470.463,409.47,490.087,450.325,512z"/>
<path style="fill:#3DB751;" d="M499.261,511.95c6.328-0.503,11.309-5.786,11.309-12.244v-66.218
	c-49.069,0-98.537,4.223-146.315,12.34C410.3,464.792,455.341,486.884,499.261,511.95z"/>
<path style="fill:#338921;" d="M450.325,512h47.949c6.79,0,12.294-5.503,12.294-12.294v-28.494
	c-41.229,0-83.657,3.377-122.899,9.828C408.319,490.394,430.066,501.136,450.325,512z"/>
<path style="fill:#399928;" d="M499.261,511.95c6.328-0.503,11.309-5.786,11.309-12.244v-28.494c-26.716,0-53.931,1.427-80.462,4.18
	C453.45,486.765,476.504,498.963,499.261,511.95z"/>
<g>
	<path style="fill:#DBDAD9;" d="M398.1,1.712l-4.096-1.145c-8.144-2.273-16.589,2.485-18.864,10.63l-23.327,83.56
		c-2.274,8.144,2.484,16.588,10.629,18.863l4.096,1.144c8.144,2.273,16.589-2.485,18.864-10.63l23.328-83.56
		C411.002,12.429,406.242,3.986,398.1,1.712z"/>
	<path style="fill:#DBDAD9;" d="M341.836,203.24l-4.096-1.144c-8.144-2.274-16.588,2.485-18.862,10.629l-23.33,83.56
		c-2.273,8.144,2.485,16.588,10.63,18.864l4.096,1.143c8.144,2.274,16.59-2.485,18.864-10.63l23.328-83.559
		C354.739,213.959,349.979,205.513,341.836,203.24z"/>
</g>
<g>
	<path style="fill:#C4BEBB;" d="M368.932,99.551l23.327-83.56c1.622-5.809,6.387-9.878,11.94-10.919
		c-3.187-2.865-5.916-3.31-10.194-4.505c-8.144-2.273-16.589,2.485-18.864,10.63l-23.327,83.56
		c-2.274,8.144,2.484,16.588,10.629,18.863l4.096,1.144c2.335,0.652,4.69,0.708,6.922,0.29
		C369.27,111.285,367.314,105.348,368.932,99.551z"/>
	<path style="fill:#C4BEBB;" d="M312.667,301.079l23.33-83.56c1.621-5.808,6.386-9.878,11.939-10.918
		c-3.193-2.872-5.935-3.315-10.196-4.505c-8.144-2.274-16.588,2.485-18.862,10.629l-23.33,83.56
		c-2.273,8.144,2.485,16.588,10.63,18.864l4.096,1.143c2.335,0.652,4.691,0.708,6.923,0.29
		C313.006,312.812,311.049,306.876,312.667,301.079z"/>
</g>
<g>
	<path style="fill:#DBDAD9;" d="M195.42,112.469l-1.144,4.096c-2.274,8.146,2.486,16.59,10.631,18.864l83.559,23.328
		c8.147,2.275,16.59-2.483,18.864-10.63l1.145-4.094c2.271-8.144-2.485-16.59-10.632-18.864l-83.559-23.329
		C206.14,99.567,197.694,104.326,195.42,112.469z"/>
	<path style="fill:#DBDAD9;" d="M396.95,168.733l-1.144,4.096c-2.273,8.144,2.486,16.588,10.63,18.863l83.56,23.329
		c8.143,2.273,16.589-2.484,18.863-10.63l1.145-4.096c2.273-8.144-2.486-16.588-10.631-18.863l-83.559-23.329
		C407.668,155.83,399.224,160.588,396.95,168.733z"/>
</g>
<g>
	<path style="fill:#C4BEBB;" d="M291.881,142.648l-83.559-23.328c-5.598-1.562-9.596-6.04-10.812-11.333
		c-1.733,2.552-2.039,4.296-3.234,8.577c-2.274,8.146,2.486,16.59,10.631,18.864l83.559,23.328
		c8.147,2.275,16.59-2.483,18.864-10.63l1.145-4.094c0.71-2.546,0.733-5.122,0.18-7.53
		C305.06,141.791,298.38,144.462,291.881,142.648z"/>
	<path style="fill:#C4BEBB;" d="M493.411,198.912l-83.56-23.329c-5.598-1.563-9.595-6.041-10.811-11.334
		c-0.91,1.34-1.631,2.837-2.09,4.483l-1.144,4.096c-2.273,8.144,2.486,16.588,10.63,18.863l83.56,23.329
		c8.143,2.273,16.589-2.484,18.863-10.63c1.216-4.351,2.344-7.194,1.325-11.626C506.589,198.053,499.908,200.725,493.411,198.912z"
		/>
</g>
<path style="fill:#4C565E;" d="M357.103,140.647c-1.626-0.454-3.299-0.684-4.971-0.684c-8.245,0-15.554,5.552-17.776,13.502
	c-3.266,11.707,5.542,23.43,17.792,23.43c8.245,0,15.553-5.552,17.774-13.502C372.658,153.59,366.908,143.385,357.103,140.647z"/>
<path style="fill:#384047;" d="M349.607,147.158c0.755-2.702,2.108-5.118,3.877-7.142c-0.45-0.033-0.902-0.053-1.353-0.053
	c-8.245,0-15.554,5.552-17.776,13.502c-5.273,18.902,18.833,31.792,31.689,17.072C354.363,169.663,346.493,158.325,349.607,147.158z
	"/>
<path style="fill:#9DCE32;" d="M5.193,395.49c-1.324,0.107-3.772,0.79-3.772,4.39v99.827c0,6.79,5.504,12.294,12.294,12.294h438.659
	C313.143,437.329,162.506,396.14,5.193,395.49z"/>
<path style="fill:#88BC24;" d="M27.445,499.705c0-106.997-0.905-102.337,2.114-103.785c-8.104-0.249-16.225-0.398-24.366-0.432
	c-1.324,0.107-3.772,0.79-3.772,4.389v99.827c0,6.79,5.504,12.294,12.294,12.294h26.024C32.949,512,27.445,506.497,27.445,499.705z"
	/>
<path style="fill:#81B53E;" d="M1.421,499.705c0,6.79,5.504,12.294,12.294,12.294h346.451
	c-111.649-50.715-232.515-78.513-358.745-78.513V499.705z"/>
<g>
	<path style="fill:#71A02E;" d="M27.445,499.705v-65.812c-8.65-0.263-17.322-0.408-26.024-0.408v66.218
		c0,6.79,5.504,12.294,12.294,12.294h26.024C32.949,512,27.445,506.497,27.445,499.705z"/>
	<path style="fill:#71A02E;" d="M1.421,499.705c0,6.79,5.504,12.294,12.294,12.294h230.34
		c-75.512-26.347-157.259-40.788-242.635-40.788C1.421,471.212,1.421,499.705,1.421,499.705z"/>
</g>
<path style="fill:#60891F;" d="M27.445,499.705v-28.036c-8.636-0.298-17.309-0.457-26.024-0.457v28.494
	c0,6.79,5.504,12.294,12.294,12.294h26.024C32.949,512,27.445,506.497,27.445,499.705z"/>
<g>
</g>
<g>
</g>
<g>
</g>
<g>
</g>
<g>
</g>
<g>
</g>
<g>
</g>
<g>
</g>
<g>
</g>
<g>
</g>
<g>
</g>
<g>
</g>
<g>
</g>
<g>
</g>
<g>
</g>
</svg>
