<?xml version="1.0" encoding="iso-8859-1"?>
<!-- Generator: Adobe Illustrator 19.0.0, SVG Export Plug-In . SVG Version: 6.00 Build 0)  -->
<svg version="1.1" id="Layer_1" xmlns="http://www.w3.org/2000/svg" xmlns:xlink="http://www.w3.org/1999/xlink" x="0px" y="0px"
	 viewBox="0 0 512 512" style="enable-background:new 0 0 512 512;" xml:space="preserve">
<path style="fill:#C4BEBB;" d="M256.746,38.068c-107.218,0-194.137,86.92-194.137,194.14s86.919,194.138,194.137,194.138
	c107.22,0,194.141-86.918,194.141-194.138S363.966,38.068,256.746,38.068z M255.999,395.722
	c-90.305,0-163.513-73.207-163.513-163.514S165.694,68.693,255.999,68.693c90.308,0,163.515,73.208,163.515,163.515
	C419.514,322.515,346.307,395.722,255.999,395.722z"/>
<path style="fill:#A8A5A3;" d="M435.694,232.208c0-99.028-80.28-179.307-179.309-179.307c-99.027,0-179.305,80.279-179.305,179.307
	s80.278,179.307,179.305,179.307C355.414,411.515,435.694,331.236,435.694,232.208z M255.999,395.722
	c-90.305,0-163.513-73.207-163.513-163.514S165.694,68.693,255.999,68.693c90.308,0,163.515,73.208,163.515,163.515
	C419.514,322.515,346.307,395.722,255.999,395.722z"/>
<g>
	<path style="fill:#535A60;" d="M324.666,493.439c-3.412,0-6.534-2.277-7.459-5.729l-61.626-229.988
		c-1.104-4.123,1.342-8.359,5.464-9.464c4.121-1.102,8.359,1.342,9.463,5.464l61.626,229.988c1.104,4.122-1.342,8.36-5.464,9.463
		C326.001,493.353,325.328,493.439,324.666,493.439z"/>
	<path style="fill:#535A60;" d="M186.953,492.682c-4.123-1.104-6.568-5.341-5.464-9.463l61.76-230.495
		c1.105-4.123,5.347-6.569,9.463-5.464c4.122,1.105,6.568,5.341,5.464,9.464l-61.76,230.495
		C195.308,491.355,191.055,493.785,186.953,492.682z"/>
</g>
<g>
	<path style="fill:#77C6ED;" d="M256.746,213.941c-4.267,0-7.727-3.459-7.727-7.727V38.068c0-4.267,3.459-7.727,7.727-7.727
		c4.267,0,7.727,3.459,7.727,7.727v168.146C264.472,210.482,261.013,213.941,256.746,213.941z"/>
	<path style="fill:#77C6ED;" d="M256.746,434.073c-4.267,0-7.727-3.459-7.727-7.727V255.721c0-4.267,3.459-7.727,7.727-7.727
		c4.267,0,7.727,3.459,7.727,7.727v170.624C264.472,430.614,261.013,434.073,256.746,434.073z"/>
	<path style="fill:#77C6ED;" d="M347.123,404.199l-84.449-146.272c-2.134-3.696-0.868-8.422,2.828-10.555s8.421-0.868,10.555,2.828
		l84.449,146.272c2.134,3.695,0.868,8.421-2.828,10.555C353.982,409.161,349.257,407.895,347.123,404.199z"/>
	<path style="fill:#77C6ED;" d="M238.086,215.342L152.985,67.94c-2.134-3.696-0.868-8.422,2.828-10.555
		c3.696-2.134,8.421-0.868,10.555,2.828l85.102,147.402c2.134,3.696,0.868,8.422-2.828,10.555
		C244.947,220.304,240.221,219.039,238.086,215.342z"/>
	<path style="fill:#77C6ED;" d="M421.011,335.967l-147.31-85.05c-3.696-2.133-4.962-6.859-2.828-10.555
		c2.134-3.695,6.859-4.963,10.555-2.828l147.31,85.05c3.696,2.134,4.962,6.86,2.828,10.555
		C429.433,336.835,424.707,338.1,421.011,335.967z"/>
	<path style="fill:#77C6ED;" d="M231.042,226.287l-146.289-84.46c-3.696-2.133-4.962-6.859-2.828-10.555
		c2.133-3.695,6.86-4.962,10.555-2.828l146.289,84.459c3.696,2.133,4.962,6.859,2.828,10.555
		C239.463,227.155,234.738,228.422,231.042,226.287z"/>
	<path style="fill:#77C6ED;" d="M282.983,239.933c-4.267,0-7.727-3.459-7.727-7.727s3.459-7.727,7.727-7.727l167.903-0.001
		c4.267,0,7.727,3.459,7.727,7.727s-3.46,7.727-7.727,7.727L282.983,239.933z"/>
	<path style="fill:#77C6ED;" d="M62.607,239.933c-4.267,0-7.727-3.459-7.727-7.727s3.459-7.727,7.727-7.727l169.582-0.001
		c4.267,0,7.727,3.459,7.727,7.727s-3.459,7.727-7.727,7.727L62.607,239.933z"/>
	<path style="fill:#77C6ED;" d="M271.84,223.491c-2.134-3.696-0.868-8.422,2.828-10.555l146.343-84.491
		c3.696-2.134,8.421-0.868,10.555,2.828s0.868,8.422-2.828,10.555l-146.343,84.491C278.701,228.453,273.975,227.188,271.84,223.491z
		"/>
	<path style="fill:#77C6ED;" d="M81.926,333.139c-2.134-3.695-0.868-8.421,2.828-10.555l145.582-84.052
		c3.696-2.134,8.421-0.868,10.555,2.828c2.134,3.696,0.868,8.422-2.828,10.555L92.481,335.967
		C88.785,338.1,84.059,336.834,81.926,333.139z"/>
	<path style="fill:#77C6ED;" d="M265.683,216.728c-3.696-2.133-4.962-6.859-2.828-10.555l84.27-145.961
		c2.134-3.695,6.859-4.963,10.555-2.828c3.696,2.133,4.962,6.859,2.828,10.555L276.238,213.9
		C274.104,217.595,269.379,218.862,265.683,216.728z"/>
	<path style="fill:#77C6ED;" d="M155.814,407.026c-3.695-2.134-4.962-6.86-2.828-10.555l84.643-146.61
		c2.134-3.696,6.86-4.963,10.555-2.828c3.695,2.133,4.962,6.859,2.828,10.555l-84.643,146.61
		C164.235,407.893,159.511,409.159,155.814,407.026z"/>
</g>
<g>
	<path style="fill:#E2E2E2;" d="M280.769,25.705c0,6.828-5.536,12.363-12.363,12.363h-24.812c-6.827,0-12.363-5.535-12.363-12.363
		V12.363C231.231,5.535,236.766,0,243.594,0h24.812c6.827,0,12.363,5.535,12.363,12.363V25.705z"/>
	<path style="fill:#E2E2E2;" d="M280.769,452.051c0,6.828-5.536,12.363-12.363,12.363h-24.812c-6.827,0-12.363-5.534-12.363-12.363
		v-13.342c0-6.827,5.536-12.363,12.363-12.363h24.812c6.827,0,12.363,5.536,12.363,12.363V452.051z"/>
	<path style="fill:#E2E2E2;" d="M174.199,40.986c3.415,5.913,1.388,13.474-4.524,16.888L148.187,70.28
		c-5.914,3.414-13.475,1.388-16.888-4.525L124.628,54.2c-3.414-5.913-1.387-13.474,4.525-16.888l21.487-12.406
		c5.914-3.414,13.475-1.388,16.888,4.525L174.199,40.986z"/>
	<path style="fill:#E2E2E2;" d="M387.372,410.212c3.414,5.914,1.387,13.475-4.524,16.888l-21.488,12.406
		c-5.914,3.414-13.474,1.387-16.888-4.524l-6.67-11.555c-3.415-5.913-1.388-13.475,4.525-16.888l21.487-12.406
		c5.913-3.414,13.475-1.387,16.887,4.525L387.372,410.212z"/>
	<path style="fill:#E2E2E2;" d="M89.548,107.505c5.914,3.414,7.94,10.975,4.525,16.888l-12.405,21.488
		c-3.415,5.913-10.974,7.939-16.888,4.525l-11.554-6.671c-5.914-3.414-7.94-10.975-4.525-16.888l12.405-21.488
		c3.415-5.913,10.976-7.939,16.888-4.525L89.548,107.505z"/>
	<path style="fill:#E2E2E2;" d="M458.774,320.678c5.914,3.414,7.94,10.976,4.525,16.887l-12.405,21.488
		c-3.415,5.914-10.975,7.939-16.888,4.525l-11.555-6.67c-5.913-3.415-7.939-10.976-4.524-16.888l12.405-21.488
		c3.415-5.914,10.976-7.939,16.888-4.525L458.774,320.678z"/>
	<path style="fill:#E2E2E2;" d="M49.498,207.438c6.828-0.001,12.362,5.534,12.363,12.362l-0.001,24.811
		c0.001,6.828-5.534,12.363-12.362,12.363H36.156c-6.827,0-12.363-5.535-12.363-12.363V219.8c0-6.827,5.536-12.363,12.363-12.363
		L49.498,207.438z"/>
	<path style="fill:#E2E2E2;" d="M475.844,207.438c6.827,0,12.363,5.535,12.363,12.363v24.811c0,6.829-5.536,12.363-12.363,12.364
		h-13.343c-6.827-0.001-12.362-5.536-12.363-12.364l0.001-24.811c-0.001-6.828,5.535-12.363,12.362-12.363H475.844z"/>
	<path style="fill:#E2E2E2;" d="M64.78,314.007c5.913-3.414,13.474-1.387,16.888,4.525l12.405,21.488
		c3.415,5.913,1.388,13.474-4.525,16.887l-11.554,6.671c-5.913,3.414-13.475,1.388-16.888-4.525L48.7,337.565
		c-3.415-5.912-1.388-13.474,4.525-16.887L64.78,314.007z"/>
	<path style="fill:#E2E2E2;" d="M434.006,100.834c5.913-3.414,13.474-1.388,16.888,4.525l12.405,21.488
		c3.415,5.913,1.388,13.474-4.525,16.888l-11.554,6.671c-5.914,3.413-13.474,1.387-16.888-4.526l-12.405-21.488
		c-3.415-5.913-1.388-13.474,4.523-16.888L434.006,100.834z"/>
	<path style="fill:#E2E2E2;" d="M131.299,398.658c3.413-5.913,10.974-7.938,16.887-4.525l21.487,12.407
		c5.914,3.413,7.94,10.975,4.525,16.886l-6.67,11.556c-3.415,5.912-10.976,7.939-16.888,4.524L129.152,427.1
		c-5.913-3.413-7.938-10.974-4.524-16.888L131.299,398.658z"/>
	<path style="fill:#E2E2E2;" d="M344.471,29.432c3.414-5.913,10.975-7.94,16.888-4.525l21.487,12.406
		c5.913,3.414,7.939,10.975,4.525,16.888L380.7,65.756c-3.414,5.912-10.974,7.938-16.888,4.524l-21.487-12.406
		c-5.913-3.414-7.939-10.975-4.525-16.887L344.471,29.432z"/>
</g>
<circle style="fill:#4E575E;" cx="256.75" cy="232.21" r="21.859"/>
<path style="fill:#384047;" d="M259.853,210.592c-13.452-1.922-24.966,8.538-24.966,21.613c0,18.589,21.769,28.624,35.912,16.733
	C252.112,246.27,245.446,222.706,259.853,210.592z"/>
<path style="fill:#5E6A72;" d="M372.004,499.93c0,6.666-5.405,12.07-12.07,12.07H152.067c-6.666,0-12.07-5.404-12.07-12.07v-2.151
	c0-6.665,5.404-12.069,12.07-12.069h207.867c6.665,0,12.07,5.404,12.07,12.069L372.004,499.93L372.004,499.93z"/>
<path style="fill:#384047;" d="M359.934,498.854H152.067c-4.684,0-8.736-2.673-10.737-6.573c-1.513,2.948-1.334,5.183-1.334,7.648
	c0,6.666,5.404,12.07,12.07,12.07h207.867c6.665,0,12.07-5.404,12.07-12.07c0-2.491,0.175-4.709-1.334-7.648
	C368.67,496.181,364.618,498.854,359.934,498.854z"/>
<g>
</g>
<g>
</g>
<g>
</g>
<g>
</g>
<g>
</g>
<g>
</g>
<g>
</g>
<g>
</g>
<g>
</g>
<g>
</g>
<g>
</g>
<g>
</g>
<g>
</g>
<g>
</g>
<g>
</g>
</svg>
