<?xml version="1.0" encoding="iso-8859-1"?>
<!-- Generator: Adobe Illustrator 19.0.0, SVG Export Plug-In . SVG Version: 6.00 Build 0)  -->
<svg version="1.1" id="Layer_1" xmlns="http://www.w3.org/2000/svg" xmlns:xlink="http://www.w3.org/1999/xlink" x="0px" y="0px"
	 viewBox="0 0 512 512" style="enable-background:new 0 0 512 512;" xml:space="preserve">
<path style="fill:#A51C1C;" d="M31.17,204.677L31.17,204.677c0,0-0.011-0.01-0.014-0.011c-3.348-2.383-6.993-2.607-9.72,0.497
	c-0.966,1.101-10.825,12.331-20.383,23.215c-0.869,1.161-2.308,4.114,1.132,8.303v0.002l114.203,136.559
	c-19.016-37.164-21.704-79.358-10.255-116.803L31.17,204.677z"/>
<path style="fill:#8C1818;" d="M99.39,298.663l-83.23-77.581l-0.001-0.002c-2.987-2.835-3.09-5.308-2.652-6.886
	c0,0-11.893,13.544-12.455,14.185c-0.869,1.161-2.308,4.114,1.132,8.303v0.002l114.203,136.559
	C104.672,350.345,98.802,324.991,99.39,298.663z"/>
<path style="fill:#A51C1C;" d="M387.785,225.921c5.334,9.514,9.699,19.644,12.966,30.257c38.964-13.065,78.423,15.009,78.423,54.944
	c0,32.005-25.947,57.95-57.949,57.95c-8.631,0-18.874-1.902-26.233-5.284c-4.368,10.164-9.759,19.783-16.087,28.698
	c12.134,6.016,27.857,9.414,42.319,9.414c50.133,0,90.776-40.642,90.776-90.777C512.001,247.437,448.117,203.685,387.785,225.921z"
	/>
<path style="fill:#ED4343;" d="M199.453,448.796h108.058c104.308-38.449,133.891-168.398,64.656-249.221H134.799
	C65.489,280.483,95.236,410.38,199.453,448.796z"/>
<path style="fill:#C93F3F;" d="M223.706,199.576h-88.908c-69.31,80.908-39.563,210.805,64.654,249.221H307.51
	c0.104-0.038,0.206-0.08,0.31-0.118C216.399,401.703,180.013,290.868,223.706,199.576z"/>
<path style="fill:#ED4343;" d="M132.326,169.686H374.64C308.714,92.723,198.348,92.608,132.326,169.686z"/>
<path style="fill:#C93F3F;" d="M275.57,113.493c-55.147-8.278-108.149,15.22-143.244,56.193h75.213
	C224.518,140.819,248.457,119.42,275.57,113.493z"/>
<circle style="fill:#A51C1C;" cx="253.481" cy="87.53" r="24.306"/>
<path style="fill:#8C1818;" d="M265.636,66.489c-16.115-9.327-36.459,2.307-36.459,21.045c0,18.755,20.354,30.367,36.459,21.046
	C249.444,99.21,249.448,75.856,265.636,66.489z"/>
<path style="fill:#E0DDDC;" d="M180.274,259.186c-4.268,0-7.727-3.459-7.727-7.727v-50.853c0-4.268,3.46-7.727,7.727-7.727
	s7.727,3.459,7.727,7.727v50.853C188.001,255.727,184.541,259.186,180.274,259.186z"/>
<path style="fill:#FFC33E;" d="M196.203,296.24c0,1.465-1.187,2.654-2.655,2.654h-26.551c-1.467,0-2.654-1.189-2.654-2.654v-42.126
	c0-1.466,1.187-2.655,2.654-2.655h26.551c1.468,0,2.655,1.189,2.655,2.655V296.24z"/>
<path style="fill:#F9A832;" d="M180.273,296.24v-42.126c0-1.466,1.187-2.655,2.654-2.655h-15.93c-1.467,0-2.654,1.189-2.654,2.655
	v42.126c0,1.465,1.187,2.654,2.654,2.654h15.93C181.46,298.894,180.273,297.704,180.273,296.24z"/>
<path style="fill:#A51C1C;" d="M378.041,200.606H128.925c-7.931,0-15.83-5.833-15.83-17.151c0-8.742,7.087-15.829,15.83-15.829
	h249.116c8.741,0,15.83,7.087,15.83,15.829C393.871,194.816,385.895,200.606,378.041,200.606z"/>
<path style="fill:#8C1818;" d="M378.041,184.116H128.925c-5.994,0-11.208-3.333-13.895-8.246
	c-5.371,9.817,0.489,24.736,13.895,24.736h249.116c7.726,0,15.83-5.64,15.83-17.151c0-2.749-0.703-5.332-1.935-7.584
	C389.248,180.782,384.033,184.116,378.041,184.116z"/>
<g>
</g>
<g>
</g>
<g>
</g>
<g>
</g>
<g>
</g>
<g>
</g>
<g>
</g>
<g>
</g>
<g>
</g>
<g>
</g>
<g>
</g>
<g>
</g>
<g>
</g>
<g>
</g>
<g>
</g>
</svg>
